inDegrees=no
num_controls=7
num_derivatives=13
num_iterations=112
num_multipliers=7
num_parameters=0
num_slacks=7
num_states=26
objective=0.431360
objective_accelerations=0.050022
objective_balance=0.006748
objective_effort=0.031352
objective_height=0.342085
objective_ligament=0.001153
solver_duration=1458.796346
status=Solve_Succeeded
success=true
DataType=double
version=3
OpenSimVersion=4.5
endheader
time	/jointset/ground_pelvis/pelvis_tilt/value	/jointset/ground_pelvis/pelvis_tx/value	/jointset/ground_pelvis/pelvis_ty/value	/jointset/hip_l/hip_flexion_l/value	/jointset/hip_l/hip_adduction_l/value	/jointset/hip_l/hip_rotation_l/value	/jointset/back/lumbar_extension/value	/jointset/patellofemoral_l/patellar_flexion_l/value	/jointset/knee_l/knee_flexion_l/value	/jointset/knee_l/knee_adduction_l/value	/jointset/knee_l/knee_rotation_l/value	/jointset/ankle_l/ankle_angle_l/value	/jointset/subtalar_l/subtalar_angle_l/value	/jointset/ground_pelvis/pelvis_tilt/speed	/jointset/ground_pelvis/pelvis_tx/speed	/jointset/ground_pelvis/pelvis_ty/speed	/jointset/hip_l/hip_flexion_l/speed	/jointset/hip_l/hip_adduction_l/speed	/jointset/hip_l/hip_rotation_l/speed	/jointset/back/lumbar_extension/speed	/jointset/patellofemoral_l/patellar_flexion_l/speed	/jointset/knee_l/knee_flexion_l/speed	/jointset/knee_l/knee_adduction_l/speed	/jointset/knee_l/knee_rotation_l/speed	/jointset/ankle_l/ankle_angle_l/speed	/jointset/subtalar_l/subtalar_angle_l/speed	/forceset/tau_hip_flexion_l	/forceset/tau_hip_adduction_l	/forceset/tau_hip_rotation_l	/forceset/tau_knee_flexion_l	/forceset/tau_ankle_angle_l	/forceset/tau_subtalar_angle_l	/forceset/tau_lumbar_extension	lambda_cid13_p0	lambda_cid13_p1	lambda_cid13_p2	lambda_cid13_p3	lambda_cid13_p4	lambda_cid13_p5	lambda_cid14_p0	/jointset/ground_pelvis/pelvis_tilt/accel	/jointset/ground_pelvis/pelvis_tx/accel	/jointset/ground_pelvis/pelvis_ty/accel	/jointset/hip_l/hip_flexion_l/accel	/jointset/hip_l/hip_adduction_l/accel	/jointset/hip_l/hip_rotation_l/accel	/jointset/back/lumbar_extension/accel	/jointset/patellofemoral_l/patellar_flexion_l/accel	/jointset/knee_l/knee_flexion_l/accel	/jointset/knee_l/knee_adduction_l/accel	/jointset/knee_l/knee_rotation_l/accel	/jointset/ankle_l/ankle_angle_l/accel	/jointset/subtalar_l/subtalar_angle_l/accel	gamma_cid13_p0	gamma_cid13_p1	gamma_cid13_p2	gamma_cid13_p3	gamma_cid13_p4	gamma_cid13_p5	gamma_cid14_p0
1	-0.4353718753717256	-0.05125937425690874	0.5907403324962075	1.769803079686894	-0.2713443637201419	0.2284456216484767	-0.4363242938845764	1.437119083862319	1.437119083862335	-0.1745028723127152	0.1745309888663799	0.3208195621109529	0.05330909382230786	-0.01055975119947737	-0.0002504469610739502	-0.003960040515616386	0.01891022603880291	0.000915255726004817	0.00337044144320305	0.0001285170052367849	0.008466631882952618	0.008466631882952306	-0.0001136202796923828	-7.582963487383389e-06	0.000512537850080179	0.001292568222177196	-0.3210233880397372	0.008203979486830083	-0.01204574422956845	-0.3813855298480615	0.05733625207216313	0.01275809145262906	0.2899430406407644	-27.83793121882158	1.153092160130392	-2.664801327081983	14.83976582186922	-728.3358745270757	-53.65782802565995	-0.03908975655382613	0.9400135625880764	-0.01339444691299947	1.800050627251677	-5.580920832771386	-0.602376202716297	-2.077477970356489	-0.02392044793862767	-5.527229692477193	-5.527229692477133	-0.06423412564318123	0.02152232044208536	-1.184102859697725	-1.102967232794894	4.693195253914852e-10	-1.968087423104911e-09	-8.24566552600688e-09	-2.061577481256393e-09	1.978336829152577e-09	-1.015010760760914e-08	1.402729353374766e-09
1.01	-0.4354307736257095	-0.05126255456962853	0.5907906670804873	1.769713568842918	-0.2713645035526693	0.2283733361788415	-0.4363237241413099	1.436927670125358	1.436927670125377	-0.1745039539328102	0.1745310940451343	0.3207657688027318	0.05326812669061347	-0.001214048008640816	-0.0003843810090083013	0.01402747509159282	-0.03682014668656733	-0.004938693248622569	-0.01782817206548171	-9.479555475469395e-06	-0.04675375808517588	-0.04675375808517483	-9.792302612860739e-05	2.376464142583476e-05	-0.01127388698863686	-0.009479028159411968	-0.3211585174707693	0.008250597387563501	-0.01207094390282008	-0.3812026103383046	0.0571887458288139	0.01280518901690121	0.2900520034412574	-27.88165290076312	1.13399605918839	-2.654564092759575	14.84577692805867	-728.3309222413753	-53.67110358438416	-0.03910184653792462	0.9327268855951197	-0.01320606052299517	1.798177765227792	-5.570258080481424	-0.5762318270934103	-2.14115433071017	-0.007975940673968535	-5.520098967132541	-5.52009896713237	0.03518552183884036	-0.006797560401702519	-1.1763145562877	-1.063215942600359	-2.328612417641481e-09	-2.902681095576889e-09	4.557056470116426e-08	8.083185052749928e-09	-9.485348998614705e-09	3.000904218302912e-08	-7.427468119466117e-09
1.02	-0.4353960392101329	-0.0512670368581855	0.5910208919683936	1.769066521754076	-0.2714430483913944	0.228089044316202	-0.4363243816997542	1.436183921425084	1.436183921425109	-0.1745047358061707	0.1745313649917519	0.3205940307940577	0.0531196515747513	0.008166782712742572	-0.0005108421285113307	0.03201802020969589	-0.09259702293440022	-0.01076574551354807	-0.03903083715759445	-0.0001169433376441583	-0.1020003607793789	-0.1020003607793769	-5.367093325713716e-05	2.557060963374339e-05	-0.02307640224051409	-0.02020902861137854	-0.3212936469018045	0.008297215288296559	-0.01209614357609335	-0.381019690828547	0.05704123958546515	0.01285228658117314	0.2901609662417468	-27.93332875889595	1.117160231447383	-2.645678422857365	14.90053828461494	-728.4289083525205	-53.63257713790718	-0.03910825018187602	0.9470390686974447	-0.01189986122673582	1.800656529430451	-5.590221537263919	-0.5969968607759222	-2.078288287042087	-0.01781389222989772	-5.532472237692088	-5.532472237692115	-0.05852315778164237	0.01561399310102772	-1.187320942329766	-1.094648046870378	-4.412722761841713e-09	-6.070854192142787e-09	1.028377665023436e-07	1.548683975286472e-08	-2.046327845205611e-08	7.165454817684459e-08	-1.729526224119988e-08
1.03	-0.4352672858332518	-0.05127271691164265	0.5914309688307563	1.767861586014727	-0.2715797010897197	0.2275928650670862	-0.4363259377462574	1.434887675691902	1.434887675691909	-0.1745050543778873	0.1745315526616104	0.3203041261326076	0.05286413234558074	0.01759347739682424	-0.0006210015214044728	0.04999111589625182	-0.148387128628594	-0.01655766362796305	-0.0601913944115188	-0.0001871005511192652	-0.1572434355924081	-0.1572434355924068	-1.619091245366163e-05	1.241939682975776e-05	-0.03491337507796268	-0.03088338814652282	-0.3212230540183742	0.008386902766626394	-0.01218046262034011	-0.3806083768994998	0.05700565723178311	0.0129608738470936	0.2901378152869111	-27.92384117349991	1.052363274627758	-2.61709910601362	14.86114612393301	-728.2156415795221	-53.62437159568142	-0.0391387194452821	0.9419236408820213	-0.009944304890522173	1.794694279523005	-5.572955206639144	-0.5692437195860234	-2.132917557545935	-0.0005418240679876344	-5.519417068812677	-5.519417068812757	0.03394966559102558	-0.009748152735949544	-1.183208879506529	-1.05213349241781	-6.489549212176301e-09	-9.261818915485166e-09	1.60140182299176e-07	2.286252396487858e-08	-3.143625120780031e-08	1.133152210706925e-07	-2.717364408384073e-08
1.04	-0.4350439777150065	-0.05127937262434271	0.5920205882882357	1.766098839194206	-0.2717740638557518	0.2268854846228355	-0.436327980402525	1.433039160817449	1.43303916081744	-0.1745051849326801	0.1745316151244864	0.3198955870577721	0.05250220880394247	0.02707773098564506	-0.0007059739770903447	0.06792653923300494	-0.2041592391684691	-0.02230775905484765	-0.08127107618457641	-0.0002142652910599702	-0.2124541890336108	-0.2124541890336099	-1.606754846279616e-05	5.292134324320245e-07	-0.04680328491757597	-0.04148989110492139	-0.3211524611349555	0.008476590244955588	-0.0122647816645838	-0.380197062970452	0.05697007487810297	0.0130694611130137	0.2901146643320632	-27.92241605244095	0.9899013815678654	-2.589947054957042	14.87061734227576	-728.1062897760639	-53.56476386739731	-0.03916342857752236	0.9585508496452771	-0.006862473785282814	1.79312205946989	-5.586622506400173	-0.5886323232698439	-2.06211319086874	-0.00921539752298246	-5.526007963326786	-5.526007963326758	-0.06599448914416277	0.01586619898235731	-1.197908342762704	-1.081076731521234	-8.645254821848792e-09	-1.287252512355628e-08	2.116566183409238e-07	2.936996065381456e-08	-4.131634949344851e-08	1.507217052420966e-07	-3.622035476547039e-08
1.05	-0.4347254171355812	-0.0512867041379156	0.592789304891125	1.763778493100294	-0.2720256418181177	0.2259677349312504	-0.4363301029179689	1.430638871417333	1.430638871417317	-0.1745054072018741	0.1745315788834823	0.3193678998584151	0.05203469657291488	0.03665658916501842	-0.0007513711642447783	0.08580382044635237	-0.2599046882391362	-0.02799311454335793	-0.1022671554967772	-0.0002058658207031046	-0.2675814755651158	-0.2675814755651131	-2.128731837598396e-05	-5.486985007657373e-06	-0.05874126174792713	-0.05198742169959353	-0.3208954500871143	0.00858699949653681	-0.01240908271049541	-0.3795309747035363	0.05705988481794282	0.01325559093076292	0.2899785115257963	-27.85287984772055	0.8689950286463267	-2.538808465418293	14.75663282133612	-727.672389247704	-53.55430806439561	-0.03921072384859615	0.9608858177461147	-0.002027469683704186	1.78307668557917	-5.567711864354728	-0.5563184511417567	-2.116634076808834	0.006523415913407915	-5.502747545072788	-5.502747545072511	0.03325943381715256	-0.008552530437157271	-1.192802961657308	-1.030350445737995	-1.080342540525059e-08	-1.649634825302517e-08	2.629922425153252e-07	3.585026460765436e-08	-5.116229545190622e-08	1.879952460159244e-07	-4.524107572331846e-08
1.06	-0.434310401471231	-0.05129421944906063	0.5937364034128101	1.760900851364286	-0.2723336395932687	0.2248403686914605	-0.4363320102793813	1.427687977442501	1.427687977442477	-0.1745054726378209	0.1745315390802601	0.3187206207690573	0.05146295719148104	0.04636874797090334	-0.0007427334915156011	0.1036029229921776	-0.3156183675879917	-0.0335917216118737	-0.123194385825502	-0.0001712344864098068	-0.322575103977039	-0.3225751039770346	1.529910099286349e-05	-1.832306465318535e-07	-0.07072166291771835	-0.06233532118617745	-0.3206384390392661	0.008697408748119358	-0.01255338375640552	-0.3788648864366215	0.05714969475778126	0.0134417207485136	0.2898423587195362	-27.79158985561302	0.7505177427170907	-2.489182766386618	14.69146323032404	-727.3438357916219	-53.49355038462752	-0.03925218327246675	0.9852109749475904	0.003944498191439265	1.777486325965442	-5.580268562037846	-0.5712826392709424	-2.048343394173552	-0.003969024735636177	-5.499276339410409	-5.499276339410431	-0.05763325128775406	0.01813018954259965	-1.20639321065072	-1.051150509903588	-1.573616579025132e-08	-2.285863308830976e-08	3.139401906823072e-07	4.717795838363186e-08	-6.278839087837606e-08	2.213803394796475e-07	-5.415049115320867e-08
1.07	-0.4337979016529563	-0.05130125517484691	0.5948611023245935	1.757466332349671	-0.2726971334387729	0.2235042240059979	-0.4363322730844144	1.424187697971485	1.424187697971485	-0.1745050837508061	0.1745315420727719	0.3179534075441849	0.05078861540270196	0.05612362032218015	-0.0006430597914344002	0.1213241533727563	-0.371271513155133	-0.0390888292030571	-0.1440149126252848	0.00023932233351402	-0.3774712997370276	-0.3774712997370319	6.101896708584281e-05	4.402168575135841e-07	-0.08272051206575376	-0.07249811298398627	-0.3209835755999412	0.008905197248881825	-0.01275596747822435	-0.3779004754116925	0.05709461616543013	0.01371785691679419	0.2903363687669415	-27.78489267819269	0.590941106764231	-2.419790532238285	14.47462821435881	-727.3519505150282	-53.45616391521092	-0.03931417680356588	0.969488677550811	0.01619350360742314	1.767520427760426	-5.555748616750685	-0.5362458872455662	-2.096010835373439	0.0816653646980554	-5.483354884216983	-5.483354884218296	0.03542768178339901	-0.009106606468749969	-1.196553920354387	-0.9936443348978869	-2.081648967533711e-08	-2.936658078028669e-08	3.648675177850649e-07	5.876349204376564e-08	-7.45091751063359e-08	2.545586006396417e-07	-6.305398607629262e-08
1.08	-0.4331880804487045	-0.05130665122409413	0.5961626293469139	1.753475699666846	-0.2731150625738297	0.2219604533500389	-0.4363248108554537	1.420138743804884	1.420138743804908	-0.1745042870498833	0.1745315242939983	0.3170662211971371	0.05001368553190915	0.0658330251667823	-0.0004147981837013094	0.1389685450995811	-0.4268411012302091	-0.04447877952238168	-0.1647195799247793	0.001373772327104369	-0.4323100430939735	-0.4323100430939884	9.68618822020793e-05	-4.337488560926933e-06	-0.09471628735276751	-0.08245293758892966	-0.3213287121606084	0.009112985749646193	-0.01295855120005933	-0.3769360643867645	0.05703953757307745	0.0139939930850771	0.2908303788143546	-27.78679191073021	0.434026880946395	-2.352144890805786	14.30653516238383	-727.4690217022819	-53.36933341602856	-0.03936998564600761	0.9761174736126516	0.02966207972182112	1.762118595214667	-5.563557063624772	-0.5498511848991824	-2.025171494115876	0.1408096099977309	-5.487785858801846	-5.487785858802285	-0.05960864148310273	0.01704995895811101	-1.205778438446384	-1.009557071330504	-2.472168083450636e-08	-3.911812602253531e-08	4.130973598306005e-07	6.506746011982562e-08	-8.410789017716963e-08	2.830145502281876e-07	-7.212744804032988e-08
